<?xml version="1.0" encoding="UTF-8" standalone="no"?>
<!DOCTYPE svg PUBLIC "-//W3C//DTD SVG 1.1//EN" "http://www.w3.org/Graphics/SVG/1.1/DTD/svg11.dtd">
<svg width="100%" height="100%" viewBox="0 0 347 349" version="1.1" xmlns="http://www.w3.org/2000/svg" xmlns:xlink="http://www.w3.org/1999/xlink" xml:space="preserve" xmlns:serif="http://www.serif.com/" style="fill-rule:evenodd;clip-rule:evenodd;stroke-linejoin:round;stroke-miterlimit:2;">
    <path d="M87.045,31.386C64.232,31.469 45.714,49.922 45.529,72.714C28.966,78.23 17.009,93.861 17.009,112.266C17.009,113.198 17.04,114.123 17.101,115.04C6.625,124.138 0,137.555 0,152.506C0,165.515 5.016,177.363 13.221,186.216C4.959,196.291 0,209.177 0,223.212C0,241.487 8.41,257.816 21.571,268.526C20.922,271.626 20.581,274.839 20.581,278.13C20.581,303.958 41.55,324.927 67.378,324.927C71.32,324.927 75.148,324.438 78.806,323.518C87.208,338.94 101.904,348.846 118.263,348.846C143.546,348.846 165.06,324.706 165.06,293.953C165.06,268.832 168.761,60.828 168.761,42.998C168.761,19.994 150.085,1.318 127.081,1.318C108.106,1.318 92.078,14.026 87.045,31.386ZM303.538,74.031C304.093,51.246 286.185,32.2 263.386,31.375C258.92,13.86 243.313,0.639 224.349,0.022C201.357,-0.725 182.084,17.334 181.336,40.326C180.757,58.147 177.697,266.161 176.881,291.269C175.882,322.005 196.6,346.832 221.87,347.653C238.22,348.185 253.23,338.761 262.129,323.62C265.755,324.659 269.565,325.272 273.505,325.4C299.32,326.239 320.959,305.963 321.798,280.149C321.905,276.859 321.668,273.637 321.121,270.517C334.622,260.24 343.559,244.194 344.152,225.928C344.608,211.901 340.07,198.861 332.14,188.522C340.629,179.941 346.027,168.262 346.45,155.26C346.936,140.317 340.75,126.691 330.575,117.256C330.666,116.343 330.727,115.42 330.757,114.488C331.355,96.093 319.912,80.082 303.538,74.031ZM41.751,265.605C41.676,266.452 41.484,267.302 41.168,268.129C39.979,271.237 39.331,274.608 39.331,278.13C39.331,293.609 51.898,306.177 67.378,306.177C71.793,306.177 75.973,305.157 79.688,303.335C82.094,302.155 84.891,302.061 87.371,303.078C89.851,304.095 91.778,306.125 92.663,308.655C96.97,320.956 106.586,330.096 118.263,330.096C134.298,330.096 146.31,313.457 146.31,293.953C146.31,268.832 150.011,60.828 150.011,42.998C150.011,30.343 139.736,20.068 127.081,20.068C114.745,20.068 104.67,29.827 104.17,42.042C104.055,44.846 102.69,47.452 100.45,49.142C98.209,50.833 95.33,51.431 92.601,50.772C90.871,50.354 89.063,50.134 87.204,50.134C74.549,50.134 64.274,60.408 64.274,73.064C64.274,74.781 64.462,76.454 64.82,78.064C65.405,80.692 64.832,83.445 63.247,85.621C61.661,87.797 59.217,89.186 56.536,89.435C44.887,90.517 35.759,100.335 35.759,112.266C35.759,113.943 35.939,115.579 36.281,117.154C37.095,120.9 35.546,124.764 32.37,126.911C24.158,132.463 18.75,141.857 18.75,152.506C18.75,162.104 23.144,170.684 30.025,176.348C30.229,176.484 30.429,176.629 30.625,176.783C30.886,177.002 31.151,177.218 31.418,177.431C31.666,177.612 31.917,177.79 32.17,177.964C32.483,178.179 32.78,178.411 33.06,178.659C35.029,180.043 37.153,181.22 39.433,182.096C42.617,183.32 46.027,184.128 49.615,184.245C58.491,184.535 66.715,181.304 72.755,175.646C78.99,169.806 83.121,161.667 83.421,152.506C83.421,148.954 86.304,146.071 89.855,146.071C93.407,146.071 96.29,148.954 96.29,152.506C96.715,165.49 91.593,177.371 83.316,186.207C74.858,195.237 62.885,200.813 49.615,201.247C44.026,201.43 38.639,200.56 33.568,198.983C31.859,198.451 30.193,197.819 28.574,197.099C22.46,204.077 18.75,213.214 18.75,223.212C18.75,234.366 23.368,244.45 30.79,251.657C32.259,249.809 33.876,248.061 35.636,246.439C43.899,238.822 54.847,233.643 67.378,234.273C70.929,234.273 73.812,237.157 73.812,240.708C73.812,244.26 70.929,247.143 67.378,247.143C58.924,247.568 51.952,251.837 46.922,257.51C44.757,259.951 43.018,262.708 41.751,265.605ZM315.666,178.114C322.728,172.676 327.398,164.244 327.71,154.65C328.056,144.007 322.956,134.442 314.928,128.626C311.824,126.377 310.401,122.465 311.337,118.747C311.73,117.184 311.962,115.555 312.017,113.879C312.404,101.955 303.601,91.845 291.993,90.385C289.322,90.049 286.924,88.581 285.41,86.355C283.896,84.128 283.413,81.358 284.082,78.751C284.493,77.153 284.735,75.487 284.791,73.771C285.202,61.122 275.267,50.519 262.618,50.108C260.76,50.047 258.946,50.209 257.203,50.57C254.455,51.14 251.596,50.449 249.412,48.687C247.227,46.924 245.948,44.276 245.924,41.469C245.821,29.245 236.068,19.163 223.74,18.762C211.091,18.351 200.488,28.287 200.076,40.935C199.497,58.756 196.437,266.77 195.621,291.878C194.987,311.372 206.452,328.392 222.479,328.913C234.15,329.293 244.057,320.47 248.762,308.315C249.729,305.815 251.72,303.849 254.232,302.913C256.744,301.978 259.536,302.162 261.903,303.42C265.557,305.361 269.701,306.517 274.115,306.66C289.586,307.163 302.555,295.011 303.058,279.539C303.172,276.02 302.634,272.629 301.547,269.484C301.258,268.647 301.093,267.792 301.046,266.942C299.874,264.006 298.225,261.193 296.141,258.684C291.297,252.851 284.468,248.357 276.033,247.657C272.483,247.542 269.695,244.566 269.81,241.017C269.926,237.467 272.901,234.679 276.451,234.795C288.995,234.571 299.769,240.104 307.781,247.985C309.487,249.663 311.046,251.463 312.454,253.358C320.107,246.395 325.05,236.467 325.412,225.319C325.737,215.327 322.326,206.074 316.442,198.901C314.8,199.568 313.115,200.145 311.39,200.621C306.269,202.033 300.857,202.727 295.277,202.363C282.029,201.498 270.243,195.536 262.082,186.236C254.097,177.135 249.364,165.095 250.21,152.131C250.326,148.581 253.301,145.793 256.851,145.909C260.4,146.024 263.189,148.999 263.073,152.549C263.075,161.715 266.939,169.984 272.981,176.023C278.835,181.875 286.949,185.372 295.829,185.37C299.42,185.369 302.854,184.673 306.076,183.553C308.383,182.751 310.544,181.644 312.557,180.324C312.846,180.086 313.15,179.864 313.469,179.659C313.728,179.493 313.985,179.323 314.238,179.15C314.513,178.947 314.784,178.739 315.052,178.528C315.253,178.381 315.457,178.243 315.666,178.114Z" style="fill:white;"/>
</svg>
