<?xml version="1.0" encoding="UTF-8" standalone="no"?>
<!DOCTYPE svg PUBLIC "-//W3C//DTD SVG 1.1//EN" "http://www.w3.org/Graphics/SVG/1.1/DTD/svg11.dtd">
<svg width="100%" height="100%" viewBox="0 0 347 349" version="1.1" xmlns="http://www.w3.org/2000/svg" xmlns:xlink="http://www.w3.org/1999/xlink" xml:space="preserve" xmlns:serif="http://www.serif.com/" style="fill-rule:evenodd;clip-rule:evenodd;stroke-linejoin:round;stroke-miterlimit:2;">
    <path d="M87.045,31.386C64.232,31.469 45.714,49.922 45.529,72.714C28.966,78.23 17.009,93.861 17.009,112.266C17.009,113.198 17.04,114.123 17.101,115.04C6.625,124.138 0,137.555 0,152.506C0,165.515 5.016,177.363 13.221,186.216C4.959,196.291 0,209.177 0,223.212C0,241.487 8.41,257.816 21.571,268.526C20.922,271.626 20.581,274.839 20.581,278.13C20.581,303.958 41.55,324.927 67.378,324.927C71.32,324.927 75.148,324.438 78.806,323.518C87.208,338.94 101.904,348.846 118.263,348.846C143.546,348.846 165.06,324.706 165.06,293.953C165.06,268.832 168.761,60.828 168.761,42.998C168.761,19.994 150.085,1.318 127.081,1.318C108.106,1.318 92.078,14.026 87.045,31.386ZM303.538,74.031C304.093,51.246 286.185,32.2 263.386,31.375C258.92,13.86 243.313,0.639 224.349,0.022C201.357,-0.725 182.084,17.334 181.336,40.326C180.757,58.147 177.697,266.161 176.881,291.269C175.882,322.005 196.6,346.832 221.87,347.653C238.22,348.185 253.23,338.761 262.129,323.62C265.755,324.659 269.565,325.272 273.505,325.4C299.32,326.239 320.959,305.963 321.798,280.149C321.905,276.859 321.668,273.637 321.121,270.517C334.622,260.24 343.559,244.194 344.152,225.928C344.608,211.901 340.07,198.861 332.14,188.522C340.629,179.941 346.027,168.262 346.45,155.26C346.936,140.317 340.75,126.691 330.575,117.256C330.666,116.343 330.727,115.42 330.757,114.488C331.355,96.093 319.912,80.082 303.538,74.031Z" style="fill:white;"/>
</svg>
